<?xml version="1.0" encoding="UTF-8"?><svg id="Layer_2" xmlns="http://www.w3.org/2000/svg" viewBox="0 0 1082.9 1219.26"><defs><style>.cls-1{fill:#dfc4b9;}</style></defs><g id="Layer_1-2"><g><g><path class="cls-1" d="M370.48,185.49c2.75-7.6,.29-16.94-5.98-22.72-6.55-6.03-15.51-7.11-24.59-2.95-10.32,4.72-15.85,13.81-15.18,24.93,.76,12.68,9.56,24.52,20.93,28.16,23.35,7.47,39.1-8.87,52.03-24.78,3.09-3.8,7.18-9.3,11.93-15.67,.44-.59,.9-1.21,1.36-1.82,2.62-.94,10.11-2.06,15.59,.27,2.62,1.11,4.34,2.82,5.26,5.24,2.65,6.99,.44,12.67-6.05,15.58-2.22,.99-5.53,.49-7.54-1.15-1.75-1.43-2.34-3.51-1.75-6.19,.29-1.32,.89-3.01,2.07-3.53,1.13-.5,2.74-.09,3.84,.34,.66,.72,1.59,1.17,2.64,1.17,1.99,0,3.6-1.61,3.6-3.6s-1.5-3.47-3.39-3.58c-2.02-.86-5.77-1.98-9.33-.42-2.06,.9-4.76,3.05-5.89,8.17-1.13,5.1,.34,9.75,4.03,12.76,2.53,2.07,5.86,3.16,9.11,3.16,1.86,0,3.69-.36,5.33-1.09,9.67-4.33,13.41-13.74,9.53-23.97-1.55-4.08-4.61-7.19-8.87-8.99-3.93-1.66-8.46-2.05-12.44-1.83,13.08-17.34,29.33-37.88,39.59-43.66,16.19-9.12,43.12-13.6,65.72,3.81,22.09,17.01,19.03,46.39,18.99,46.72-1.15,10.86-11.24,25.49-23.99,34.79-12.01,8.76-33.91,10.71-42.35,.5-6.03-7.3-9.76-27.76,2.49-37.98,5.69-4.75,11.59-5.23,15.54-4.79,5.35,.59,10.57,3.28,13.31,6.84,2.73,3.56,3.39,10.07,1.54,15.15-.96,2.63-2.98,5.96-7.18,6.89-5.07,1.12-8.72-.99-10.99-3.13,2.38-1.21,4.02-3.66,4.02-6.51,0-4.05-3.28-7.33-7.33-7.33s-7.33,3.28-7.33,7.33c0,2.3,1.08,4.33,2.74,5.68l-.75,.39c2.37,4.56,9.82,12.53,21.07,10.04,5.57-1.23,9.82-5.17,11.97-11.1,2.64-7.26,1.61-16.08-2.51-21.45-3.84-5-10.67-8.6-17.84-9.4-5.23-.58-13.03,.04-20.52,6.29-15.1,12.6-12.01,36.81-3.35,47.29,5.53,6.69,14.14,9.35,23.07,9.35,10.44,0,21.33-3.64,28.3-8.72,8.87-6.47,18.64-17.17,23.58-28.42,4.94,11.25,14.71,21.95,23.58,28.42,6.97,5.08,17.86,8.72,28.3,8.72,8.93,0,17.54-2.66,23.07-9.35,8.67-10.48,11.75-34.69-3.35-47.29-7.48-6.25-15.29-6.86-20.52-6.29-7.16,.79-14,4.39-17.84,9.4-4.12,5.37-5.16,14.2-2.51,21.46,2.16,5.92,6.41,9.86,11.97,11.09,11.24,2.49,18.7-5.47,21.07-10.04l-.75-.39c1.66-1.34,2.74-3.37,2.74-5.68,0-4.05-3.28-7.33-7.33-7.33s-7.33,3.28-7.33,7.33c0,2.85,1.64,5.29,4.01,6.5-2.27,2.13-5.92,4.24-10.97,3.13-4.2-.93-6.22-4.26-7.18-6.89-1.85-5.08-1.19-11.59,1.54-15.15,2.74-3.56,7.96-6.25,13.31-6.84,3.95-.44,9.85,.04,15.54,4.79,12.24,10.22,8.52,30.68,2.49,37.98-8.44,10.21-30.35,8.26-42.35-.5-12.75-9.3-22.84-23.93-23.99-34.83,0-.06-.15-1.39-.17-3.58,0-.45,0-.93,0-1.43,.14-9.17,2.53-28.86,19.16-41.66,22.6-17.4,49.53-12.93,65.72-3.81,10.26,5.78,26.51,26.31,39.59,43.66-3.97-.22-8.5,.17-12.43,1.83-4.26,1.8-7.33,4.91-8.87,8.99-3.88,10.23-.14,19.64,9.53,23.97,1.65,.74,3.48,1.09,5.33,1.09,3.25,0,6.58-1.09,9.11-3.16,3.7-3.01,5.16-7.67,4.03-12.76-1.14-5.12-3.83-7.27-5.89-8.17-3.56-1.56-7.3-.44-9.33,.42-1.89,.11-3.4,1.66-3.4,3.58s1.61,3.6,3.6,3.6c1.05,0,1.99-.46,2.64-1.18,1.1-.43,2.71-.84,3.84-.34,1.18,.52,1.77,2.21,2.07,3.53,.6,2.68,0,4.76-1.75,6.19-2.01,1.64-5.32,2.15-7.54,1.15-6.49-2.91-8.7-8.59-6.05-15.58,.92-2.42,2.64-4.13,5.26-5.24,5.49-2.32,12.97-1.21,15.6-.27,.45,.61,.92,1.23,1.36,1.82,4.75,6.37,8.85,11.87,11.93,15.67,12.93,15.91,28.67,32.25,52.03,24.78,11.37-3.64,20.17-15.48,20.93-28.16,.67-11.12-4.87-20.21-15.18-24.93-9.08-4.16-18.04-3.08-24.59,2.95-6.27,5.78-8.73,15.12-5.98,22.72,4.45,12.29,15.39,12.67,20.56,11.14l-.17-.57c4.26-.05,7.69-3.51,7.69-7.77s-3.49-7.78-7.78-7.78-7.78,3.49-7.78,7.78c0,.64,.1,1.26,.25,1.86-2.41-.76-4.98-2.64-6.53-6.91-1.87-5.16-.13-11.57,4.24-15.59,2.64-2.43,8.39-5.89,17.34-1.8,10.53,4.82,11.61,13.66,11.33,18.51-.59,9.89-7.61,19.45-16.33,22.24-19.38,6.21-32.79-7.79-44.86-22.65-3-3.69-7.06-9.14-11.76-15.45-2.12-2.85-4.36-5.85-6.67-8.92,.55,.03,1.1,.04,1.67,.04,3.44,0,7.14-.5,10.41-1.89,4.26-1.8,7.33-4.91,8.87-8.99,3.88-10.23,.13-19.64-9.53-23.97-4.52-2.03-10.46-1.18-14.44,2.07-3.7,3.01-5.17,7.66-4.03,12.76,1.14,5.12,3.83,7.27,5.89,8.17,3.57,1.56,7.31,.44,9.34-.42,1.89-.11,3.39-1.66,3.39-3.57s-1.61-3.6-3.59-3.6c-1.05,0-1.99,.46-2.64,1.17-1.1,.43-2.71,.84-3.84,.34-1.18-.52-1.78-2.21-2.07-3.53-.59-2.67,0-4.76,1.75-6.19,2.01-1.64,5.32-2.15,7.54-1.15,6.49,2.91,8.7,8.59,6.05,15.58-.92,2.41-2.63,4.13-5.26,5.24-5.26,2.23-12.37,1.29-15.25,.38-12.55-16.32-26.35-32.84-36.32-38.46-17.95-10.11-47.85-15.05-73.02,4.33-10.02,7.71-15.49,17.44-18.44,26.43-2.95-9-8.42-18.72-18.44-26.43-25.17-19.38-55.06-14.44-73.02-4.33-9.97,5.62-23.77,22.14-36.32,38.46-2.89,.91-9.99,1.85-15.25-.38-2.62-1.11-4.34-2.82-5.26-5.24-2.65-6.99-.44-12.67,6.05-15.58,2.22-.99,5.53-.49,7.54,1.15,1.75,1.43,2.34,3.51,1.75,6.19-.29,1.32-.89,3.01-2.07,3.53-1.13,.5-2.74,.09-3.84-.34-.66-.72-1.59-1.17-2.64-1.17-1.99,0-3.59,1.61-3.59,3.6s1.5,3.47,3.39,3.57c2.02,.86,5.76,1.98,9.33,.42,2.06-.9,4.76-3.05,5.9-8.17,1.13-5.1-.34-9.75-4.03-12.76-3.98-3.24-9.92-4.1-14.44-2.07-9.67,4.33-13.41,13.74-9.53,23.97,1.55,4.08,4.61,7.19,8.87,8.99,3.28,1.39,6.98,1.89,10.42,1.89,.57,0,1.12-.01,1.67-.04-2.31,3.07-4.55,6.07-6.67,8.92-4.7,6.31-8.76,11.76-11.76,15.45-12.07,14.86-25.49,28.85-44.86,22.65-8.72-2.79-15.74-12.35-16.33-22.24-.29-4.84,.8-13.68,11.32-18.51,8.95-4.09,14.7-.63,17.34,1.8,4.36,4.02,6.11,10.43,4.24,15.59-1.55,4.27-4.12,6.14-6.53,6.91,.15-.6,.25-1.21,.25-1.86,0-4.3-3.49-7.78-7.78-7.78s-7.78,3.49-7.78,7.78,3.44,7.73,7.69,7.78l-.17,.57c5.16,1.52,16.11,1.15,20.56-11.14Z"/><path class="cls-1" d="M539.77,106.29v.08s2.78-.02,2.78-.02l2.77,.02v-.08c20.83-.62,36.65-6.96,47.01-18.89,16.17-18.63,12.98-43.81,12.84-44.87l-.39-2.87h-2.9c-21.94,0-38.55,6.25-49.36,18.56-4.83,5.5-7.96,11.6-9.97,17.5-2.02-5.9-5.14-12-9.97-17.5-10.81-12.32-27.42-18.56-49.36-18.56h-2.9l-.39,2.87c-.14,1.06-3.33,26.24,12.84,44.87,10.36,11.94,26.18,18.28,47,18.89Zm17.77-43.74c9.01-10.23,22.88-15.68,41.28-16.22,.28,6.74-.27,23.79-11.49,36.72-8.96,10.33-22.87,15.9-41.35,16.6,.06-1.73,.07-3.96-.08-6.55,.57-8.38,3.01-20.74,11.65-30.55Zm-71.25-16.22c18.39,.54,32.26,5.99,41.27,16.22,8.64,9.81,11.08,22.17,11.65,30.55-.15,2.59-.15,4.82-.08,6.55-18.45-.7-32.34-6.26-41.31-16.55-11.22-12.89-11.79-30.01-11.52-36.76Z"/><path class="cls-1" d="M542.69,7.18c4.71,2.26,21.51,11.83,26.65,35.6l6.48-1.4c-6.64-30.75-30.89-40.51-31.92-40.91l-1.2-.47-1.2,.47c-1.03,.4-25.28,10.16-31.92,40.91l6.48,1.4c5.14-23.77,21.95-33.35,26.65-35.6Z"/><rect class="cls-1" x="539.37" y="15.32" width="6.63" height="45.73"/><path class="cls-1" d="M68.01,493.09c-.95,.21-1.81,.79-2.34,1.7-.99,1.72-.4,3.92,1.32,4.91,1.66,.96,3.75,.43,4.79-1.15,1.75-1.32,4.6-4,5.03-7.87,.25-2.24-.27-5.64-4.13-9.19-3.85-3.53-8.61-4.58-13.07-2.89-4.8,1.82-8.51,6.54-9.01,11.47-1.08,10.54,5.2,18.49,16,20.24,4.31,.7,8.53-.4,12.22-3.19,2.84-2.15,5.13-5.09,6.85-8.07,.28-.49,.55-.98,.8-1.46,1.5,3.53,2.98,6.98,4.39,10.24,3.12,7.23,5.8,13.47,7.5,17.91,6.83,17.89,12.24,36.5-2.82,50.18-6.77,6.15-18.57,7.45-27.43,3.02-4.34-2.17-11.46-7.53-10.36-19.06,.93-9.79,6.8-13.05,10.23-14.11,5.66-1.77,12.09-.07,15.62,4.12,2.93,3.48,3.26,6.64,2.71,9.11-.44-.43-.93-.82-1.48-1.14-3.72-2.15-8.48-.87-10.63,2.85-2.15,3.72-.87,8.48,2.85,10.63,3.7,2.13,8.41,.89,10.58-2.78l.41,.43c3.9-3.71,9.05-13.38,.63-23.37-5.2-6.18-14.52-8.72-22.66-6.18-8.5,2.65-13.91,9.88-14.85,19.82-1.07,11.29,4.03,20.63,14,25.61,11.36,5.68,26.02,3.98,34.85-4.04,18.15-16.49,11.87-38.3,4.55-57.45-1.75-4.57-4.46-10.87-7.6-18.17-.29-.67-.6-1.39-.9-2.08,.5-2.74,3.27-9.78,8.03-13.37,2.27-1.72,4.62-2.35,7.17-1.94,7.37,1.2,11.19,5.95,10.47,13.03-.25,2.42-2.35,5.03-4.77,5.96-2.12,.8-4.21,.27-6.23-1.58-1-.91-2.16-2.27-2.02-3.56,.13-1.23,1.29-2.42,2.21-3.15,.95-.21,1.81-.79,2.34-1.7,.99-1.72,.4-3.92-1.32-4.91-1.66-.96-3.76-.43-4.79,1.15-1.76,1.32-4.6,4-5.03,7.87-.25,2.24,.27,5.64,4.13,9.19,3.85,3.53,8.61,4.58,13.07,2.89,3.06-1.16,5.67-3.5,7.29-6.31,.93-1.61,1.53-3.37,1.72-5.17,1.08-10.54-5.2-18.49-16-20.24-4.31-.7-8.53,.4-12.22,3.19-3.41,2.58-6.01,6.3-7.8,9.86-8.48-20-18.14-44.34-18.01-56.11,.2-18.58,9.78-44.14,36.15-55.01,25.78-10.63,49.69,6.72,49.95,6.91,8.83,6.42,16.45,22.48,18.13,38.17,1.58,14.78-7.68,34.72-20.75,36.93-9.33,1.58-28.92-5.43-31.65-21.14-1.27-7.3,1.27-12.65,3.63-15.85,3.19-4.34,8.13-7.52,12.58-8.11,4.45-.58,10.42,2.1,13.89,6.24,1.8,2.15,3.67,5.56,2.38,9.66-1.56,4.95-5.22,7.06-8.2,7.95,.14-2.67-1.16-5.31-3.63-6.74-3.51-2.02-7.99-.82-10.02,2.68-2.03,3.51-.82,7.99,2.68,10.01,1.99,1.15,4.29,1.23,6.28,.46l-.03,.85c5.14,.23,15.76-2.24,19.23-13.23,1.72-5.44,.43-11.09-3.62-15.92-4.96-5.92-13.12-9.44-19.84-8.55-6.25,.82-12.79,4.94-17.06,10.75-3.12,4.24-6.48,11.31-4.81,20.91,3.36,19.38,25.87,28.81,39.28,26.54,8.56-1.44,15.17-7.56,19.63-15.3,5.22-9.04,7.52-20.29,6.6-28.87-1.17-10.91-5.55-24.73-12.82-34.63,12.22,1.35,26.37-1.77,36.4-6.21,7.89-3.49,16.48-11.11,21.7-20.15,4.47-7.74,6.46-16.52,3.44-24.66-4.74-12.75-24.17-27.52-42.63-20.75-9.15,3.36-13.59,9.81-15.7,14.63-2.89,6.6-3.19,14.32-.78,20.15,2.59,6.26,9.71,11.56,17.32,12.9,6.21,1.09,11.75-.62,15.59-4.82,7.77-8.49,4.61-18.93,1.84-23.27l-.72,.46c-.33-2.11-1.55-4.06-3.54-5.22-3.51-2.02-7.99-.82-10.02,2.68-2.02,3.51-.82,7.99,2.68,10.02,2.46,1.42,5.4,1.22,7.64-.22,.71,3.03,.72,7.25-2.77,11.07-2.9,3.17-6.8,3.26-9.56,2.77-5.32-.94-10.63-4.77-12.35-8.91-1.72-4.15-1.43-10.02,.73-14.95,1.6-3.64,4.96-8.51,11.92-11.07,14.97-5.49,30.83,7.96,34.13,16.83,4.62,12.42-8.02,30.41-21.61,36.43-14.43,6.39-32.15,7.82-42.16,3.37-.06-.02-1.28-.57-3.19-1.65-.39-.23-.8-.47-1.24-.72-7.87-4.71-23.72-16.62-26.5-37.42-3.77-28.28,13.57-49.36,29.56-58.82,10.14-5.99,36.04-9.8,57.6-12.45-2.18,3.33-4.11,7.44-4.63,11.68-.57,4.59,.59,8.8,3.35,12.18,6.92,8.47,16.94,9.94,25.53,3.73,1.46-1.06,2.69-2.46,3.61-4.07,1.63-2.81,2.34-6.24,1.82-9.47-.76-4.71-4.06-8.31-9.04-9.87-5-1.57-8.21-.31-10.02,1.02-3.13,2.3-4.04,6.1-4.3,8.29-.85,1.69-.26,3.77,1.4,4.73,1.72,.99,3.92,.4,4.91-1.32,.53-.91,.6-1.95,.3-2.88,.18-1.17,.63-2.77,1.63-3.49,1.04-.76,2.8-.43,4.09-.03,2.61,.82,4.12,2.37,4.49,4.61,.41,2.56-.8,5.69-2.77,7.11-5.77,4.17-11.79,3.24-16.51-2.55-1.63-2-2.26-4.35-1.91-7.17,.73-5.91,5.44-11.83,7.57-13.64,.75-.09,1.52-.18,2.25-.26,7.89-.93,14.7-1.73,19.53-2.5,20.24-3.24,42.27-8.71,47.48-32.67,2.53-11.66-3.32-25.21-13.93-32.2-9.3-6.14-19.93-5.89-29.18,.69-8.14,5.78-11.69,14.08-9.74,22.77,1.87,8.32,8.73,15.12,16.69,16.54,12.87,2.29,18.66-7,19.93-12.23l-.58-.14c2.09-3.71,.81-8.42-2.88-10.55-3.72-2.15-8.48-.87-10.63,2.85-2.15,3.72-.87,8.48,2.85,10.63,.56,.32,1.14,.54,1.73,.71-1.87,1.7-4.78,3-9.25,2.2-5.4-.96-10.08-5.67-11.38-11.46-.79-3.5-.91-10.21,7.11-15.92,9.44-6.71,17.64-3.23,21.69-.56,8.27,5.46,13.04,16.32,11.1,25.27-4.31,19.88-23.14,24.5-42.05,27.53-4.69,.75-11.44,1.54-19.26,2.46-3.53,.41-7.25,.85-11.06,1.32,.3-.46,.59-.94,.87-1.42,1.72-2.98,3.13-6.43,3.57-9.97,.57-4.59-.59-8.8-3.35-12.18-6.92-8.47-16.94-9.94-25.53-3.73-4.02,2.9-6.25,8.47-5.43,13.54,.76,4.71,4.06,8.3,9.04,9.87,5,1.57,8.21,.32,10.02-1.02,3.14-2.31,4.04-6.11,4.3-8.29,.85-1.69,.26-3.76-1.4-4.72-1.72-.99-3.92-.4-4.91,1.32-.52,.91-.6,1.95-.3,2.88-.18,1.17-.63,2.77-1.63,3.49-1.05,.76-2.8,.43-4.09,.03-2.61-.82-4.12-2.37-4.49-4.61-.41-2.56,.8-5.69,2.77-7.11,5.77-4.17,11.79-3.24,16.51,2.55,1.63,2,2.26,4.35,1.91,7.17-.7,5.67-5.07,11.35-7.3,13.4-20.41,2.7-41.61,6.4-51.47,12.22-17.74,10.49-36.96,33.91-32.76,65.4,1.67,12.53,7.36,22.13,13.67,29.19-9.27-1.94-20.42-2.07-32.11,2.75-29.37,12.11-40.04,40.46-40.25,61.07-.12,11.45,7.29,31.66,15.15,50.68-.66,2.95-3.39,9.57-7.96,13.02-2.27,1.72-4.62,2.35-7.17,1.93-7.37-1.2-11.19-5.95-10.47-13.02,.25-2.42,2.35-5.03,4.77-5.96,2.12-.8,4.21-.27,6.23,1.58,1,.91,2.16,2.27,2.02,3.56-.14,1.23-1.29,2.42-2.21,3.16Z"/><path class="cls-1" d="M79.62,341.72c-6.11-1.2-12.96-1.55-20.14-.11-16.07,3.21-29.78,14.47-40.76,33.47l-1.45,2.51,2.29,1.77c.85,.66,21.06,16.01,45.27,11.32,15.52-3.01,28.92-13.53,39.87-31.26l.08,.03,1.37-2.4,1.4-2.39-.07-.05c9.88-18.34,12.29-35.21,7.14-50.15-8.04-23.32-31.45-33.14-32.44-33.55l-2.68-1.1-1.45,2.51c-10.97,19-13.86,36.51-8.61,52.03,2.35,6.94,6.07,12.69,10.17,17.38Zm-15.98,42.43c-16.77,3.27-31.89-4.79-37.6-8.4,9.66-15.65,21.32-24.94,34.68-27.63,12.81-2.57,24.74,1.49,32.28,5.19,2.16,1.43,4.1,2.54,5.63,3.34-9.83,15.63-21.59,24.88-34.99,27.5Zm18.66-105.85c5.97,3.12,20.47,12.12,26.05,28.31,4.46,12.93,2.34,27.75-6.3,44.11-1.46-.92-3.39-2.04-5.71-3.2-6.97-4.68-16.46-12.98-20.63-25.36-4.36-12.92-2.14-27.66,6.59-43.86Z"/><path class="cls-1" d="M33.38,353.12l4.45-4.91c-18.02-16.34-17.9-35.68-17.5-40.88,4.31-2.95,21-12.71,44.15-5.28l2.03-6.31c-29.95-9.62-50.53,6.5-51.39,7.19l-1,.81-.2,1.27c-.17,1.09-3.84,26.97,19.47,48.1Z"/><rect class="cls-1" x="43.86" y="299.97" width="6.63" height="45.73" transform="translate(-255.99 202.27) rotate(-60)"/><path class="cls-1" d="M259.62,969.76c-7.96,1.41-14.82,8.22-16.68,16.54-1.95,8.69,1.6,16.99,9.74,22.77,9.25,6.57,19.88,6.82,29.18,.69,10.6-7,16.46-20.54,13.93-32.2-5.21-23.96-27.24-29.43-47.48-32.67-4.83-.77-11.65-1.57-19.54-2.5-.73-.09-1.5-.18-2.25-.26-2.13-1.81-6.84-7.73-7.57-13.64-.35-2.83,.28-5.17,1.91-7.17,4.73-5.79,10.75-6.72,16.51-2.55,1.97,1.42,3.19,4.54,2.77,7.11-.36,2.24-1.87,3.79-4.49,4.61-1.29,.41-3.05,.73-4.09-.03-1-.73-1.45-2.33-1.63-3.49,.29-.93,.22-1.97-.3-2.88-.99-1.72-3.19-2.31-4.91-1.32-1.66,.96-2.25,3.04-1.4,4.73,.27,2.18,1.17,5.98,4.3,8.29,1.81,1.33,5.02,2.59,10.02,1.02,4.98-1.57,8.28-5.17,9.04-9.87,.52-3.23-.19-6.65-1.82-9.47-.93-1.61-2.15-3.02-3.61-4.07-8.59-6.21-18.61-4.74-25.53,3.73-2.76,3.38-3.92,7.59-3.35,12.18,.53,4.24,2.46,8.36,4.64,11.68-21.56-2.65-47.47-6.46-57.6-12.45-15.99-9.46-33.33-30.54-29.56-58.82,3.69-27.64,30.66-39.67,30.96-39.8,9.98-4.44,27.69-3.01,42.12,3.38,13.59,6.02,26.23,24.01,21.61,36.43-3.3,8.87-19.16,22.33-34.13,16.83-6.96-2.55-10.32-7.43-11.92-11.07-2.16-4.93-2.45-10.8-.73-14.95,1.72-4.14,7.02-7.97,12.35-8.91,2.76-.49,6.65-.4,9.56,2.77,3.51,3.83,3.5,8.05,2.79,11.08-2.24-1.45-5.18-1.66-7.65-.23-3.51,2.02-4.71,6.51-2.68,10.02,2.03,3.51,6.51,4.71,10.01,2.68,1.99-1.15,3.21-3.1,3.54-5.21l.72,.45c2.77-4.33,5.94-14.77-1.84-23.27-3.85-4.2-9.39-5.92-15.6-4.82-7.61,1.34-14.73,6.65-17.32,12.9-2.41,5.82-2.11,13.55,.78,20.15,2.11,4.82,6.55,11.27,15.7,14.63,18.46,6.77,37.88-8,42.63-20.75,3.03-8.14,1.03-16.92-3.43-24.66-5.22-9.04-13.81-16.66-21.7-20.15-10.04-4.44-24.19-7.56-36.4-6.22,7.28-9.91,11.65-23.72,12.82-34.63,.92-8.58-1.38-19.82-6.6-28.87-4.47-7.74-11.08-13.86-19.63-15.3-13.41-2.26-35.92,7.17-39.28,26.54-1.67,9.6,1.7,16.68,4.82,20.91,4.27,5.81,10.81,9.93,17.06,10.75,6.71,.88,14.87-2.63,19.84-8.55,4.05-4.83,5.33-10.48,3.62-15.92-3.47-10.98-14.09-13.46-19.23-13.23l.04,.85c-1.99-.77-4.29-.69-6.29,.46-3.51,2.02-4.71,6.51-2.68,10.02,2.02,3.51,6.51,4.71,10.02,2.68,2.46-1.42,3.76-4.06,3.63-6.72,2.98,.9,6.64,3,8.2,7.94,1.29,4.1-.58,7.52-2.38,9.66-3.48,4.14-9.45,6.82-13.89,6.24-4.46-.59-9.4-3.77-12.58-8.11-2.35-3.2-4.89-8.55-3.63-15.85,2.73-15.71,22.31-22.72,31.65-21.14,13.06,2.21,22.33,22.15,20.75,36.93-1.68,15.7-9.31,31.75-18.17,38.19-.05,.04-1.13,.82-3.02,1.94-.39,.22-.81,.46-1.24,.71-8.01,4.46-26.25,12.24-45.66,4.24-26.37-10.87-35.96-36.43-36.15-55.01-.13-11.77,9.53-36.11,18.01-56.11,1.79,3.55,4.39,7.28,7.8,9.85,3.69,2.79,7.92,3.89,12.22,3.19,10.8-1.76,17.08-9.7,16-20.24-.18-1.79-.79-3.56-1.72-5.16-1.63-2.81-4.24-5.15-7.29-6.31-4.46-1.69-9.22-.64-13.07,2.89-3.86,3.54-4.38,6.95-4.13,9.19,.43,3.86,3.27,6.55,5.03,7.87,1.04,1.58,3.14,2.11,4.79,1.15,1.72-.99,2.31-3.19,1.32-4.91-.52-.91-1.39-1.49-2.34-1.7-.92-.74-2.08-1.93-2.21-3.16-.13-1.28,1.03-2.64,2.02-3.56,2.02-1.85,4.12-2.39,6.24-1.58,2.43,.92,4.52,3.54,4.77,5.95,.72,7.08-3.09,11.83-10.47,13.03-2.55,.41-4.89-.22-7.17-1.94-4.75-3.59-7.53-10.63-8.03-13.37,.3-.7,.61-1.41,.9-2.08,3.15-7.3,5.86-13.6,7.6-18.17,7.32-19.15,13.6-40.96-4.55-57.45-8.83-8.03-23.49-9.73-34.85-4.04-9.96,4.98-15.06,14.32-14,25.61,.94,9.94,6.35,17.16,14.85,19.82,8.14,2.54,17.46,0,22.66-6.18,8.42-10,3.27-19.66-.63-23.37l-.41,.43c-2.17-3.66-6.88-4.91-10.58-2.78-3.72,2.15-5,6.91-2.85,10.63,2.15,3.72,6.91,5,10.63,2.85,.56-.32,1.04-.72,1.49-1.14,.54,2.47,.21,5.63-2.72,9.11-3.53,4.2-9.96,5.89-15.62,4.12-3.42-1.07-9.3-4.32-10.23-14.12-1.09-11.53,6.02-16.89,10.36-19.06,8.86-4.43,20.65-3.14,27.43,3.02,15.06,13.68,9.65,32.29,2.82,50.18-1.7,4.44-4.39,10.68-7.5,17.91-1.4,3.26-2.89,6.71-4.39,10.24-.25-.49-.52-.98-.8-1.46-1.72-2.98-4-5.93-6.84-8.07-3.69-2.79-7.92-3.89-12.22-3.19-10.8,1.76-17.08,9.7-16,20.24,.5,4.93,4.21,9.65,9.01,11.47,4.46,1.69,9.22,.64,13.07-2.89,3.86-3.54,4.38-6.95,4.13-9.19-.43-3.87-3.27-6.55-5.03-7.87-1.04-1.58-3.13-2.1-4.79-1.15-1.72,.99-2.31,3.19-1.32,4.91,.52,.91,1.39,1.49,2.34,1.7,.92,.74,2.08,1.93,2.21,3.15,.14,1.28-1.03,2.64-2.02,3.56-2.02,1.85-4.12,2.38-6.23,1.58-2.43-.92-4.53-3.54-4.77-5.96-.73-7.08,3.09-11.82,10.46-13.02,2.55-.42,4.89,.22,7.17,1.93,4.56,3.45,7.3,10.07,7.96,13.02-7.86,19.02-15.27,39.24-15.15,50.68,.22,20.61,10.89,48.96,40.25,61.07,11.69,4.82,22.85,4.69,32.11,2.76-6.31,7.06-12,16.65-13.67,29.19-4.2,31.48,15.03,54.91,32.76,65.4,9.85,5.83,31.06,9.52,51.47,12.22,2.23,2.05,6.59,7.73,7.3,13.4,.35,2.83-.27,5.17-1.91,7.17-4.73,5.79-10.75,6.72-16.51,2.55-1.97-1.42-3.19-4.55-2.77-7.11,.36-2.24,1.87-3.79,4.49-4.61,1.29-.41,3.05-.73,4.09,.03,1,.73,1.45,2.33,1.63,3.5-.29,.93-.22,1.97,.3,2.88,.99,1.72,3.19,2.31,4.91,1.32,1.66-.96,2.25-3.03,1.4-4.72-.26-2.18-1.16-5.98-4.3-8.29-1.81-1.33-5.02-2.59-10.02-1.02-4.98,1.57-8.28,5.17-9.04,9.87-.82,5.07,1.41,10.64,5.43,13.54,8.59,6.21,18.61,4.74,25.53-3.73,2.76-3.38,3.92-7.59,3.35-12.18-.44-3.53-1.85-6.99-3.57-9.97-.28-.49-.57-.96-.87-1.42,3.81,.47,7.53,.9,11.06,1.32,7.82,.92,14.57,1.71,19.26,2.46,18.91,3.03,37.73,7.65,42.05,27.53,1.94,8.94-2.83,19.81-11.1,25.26-4.05,2.67-12.25,6.15-21.69-.56-8.02-5.7-7.9-12.42-7.11-15.92,1.3-5.79,5.98-10.5,11.38-11.46,4.47-.8,7.38,.5,9.25,2.2-.59,.17-1.17,.39-1.73,.71-3.72,2.15-5,6.91-2.85,10.63,2.15,3.72,6.91,5,10.63,2.85,3.7-2.13,4.97-6.84,2.89-10.55l.58-.14c-1.26-5.23-7.06-14.52-19.93-12.23Z"/><path class="cls-1" d="M106.39,862.75l.06-.05-1.4-2.39-1.37-2.4-.08,.03c-10.95-17.73-24.34-28.25-39.87-31.26-24.22-4.69-44.42,10.66-45.27,11.32l-2.29,1.77,1.45,2.51c10.97,19,24.68,30.26,40.76,33.47,7.18,1.43,14.03,1.09,20.14-.11-4.1,4.69-7.82,10.45-10.17,17.38-5.26,15.52-2.36,33.03,8.61,52.03l1.45,2.51,2.68-1.1c.99-.41,24.39-10.23,32.44-33.55,5.16-14.95,2.74-31.81-7.14-50.15Zm-46.76,6.48c-13.37-2.69-25.02-11.98-34.68-27.63,5.69-3.61,20.73-11.67,37.54-8.41,13.43,2.6,25.2,11.86,35.05,27.51-1.53,.81-3.47,1.92-5.63,3.35-7.54,3.7-19.47,7.76-32.28,5.19Zm47.66,41.45c-5.55,16.16-20.09,25.22-26.08,28.36-8.73-16.19-10.94-30.93-6.59-43.85,4.18-12.38,13.66-20.68,20.63-25.36,2.32-1.16,4.25-2.28,5.71-3.2,8.62,16.33,10.76,31.14,6.32,44.05Z"/><path class="cls-1" d="M19.09,909.78c-.4-5.21-.51-24.55,17.5-40.88l-4.45-4.91c-23.31,21.13-19.64,47.01-19.47,48.1l.2,1.27,1.01,.81c.86,.69,21.44,16.81,51.39,7.19l-2.03-6.31c-23.16,7.44-39.85-2.33-44.15-5.28Z"/><rect class="cls-1" x="23.08" y="890.97" width="45.72" height="6.63" transform="translate(-441 142.79) rotate(-30)"/><path class="cls-1" d="M712.41,1033.76c-2.75,7.6-.29,16.94,5.98,22.72,6.55,6.03,15.51,7.11,24.59,2.95,10.32-4.72,15.85-13.81,15.18-24.93-.76-12.68-9.56-24.52-20.93-28.16-23.35-7.47-39.1,8.87-52.03,24.78-3.09,3.8-7.19,9.3-11.93,15.67-.44,.59-.9,1.21-1.35,1.82-2.63,.94-10.11,2.06-15.6-.27-2.62-1.11-4.34-2.82-5.26-5.24-2.65-6.99-.44-12.67,6.05-15.58,2.22-.99,5.53-.49,7.54,1.15,1.75,1.43,2.34,3.51,1.75,6.19-.3,1.32-.89,3.01-2.07,3.53-1.13,.5-2.74,.09-3.84-.34-.66-.72-1.59-1.17-2.64-1.17-1.99,0-3.59,1.61-3.59,3.6s1.5,3.47,3.39,3.58c2.02,.86,5.77,1.98,9.33,.42,2.06-.9,4.76-3.05,5.89-8.17,1.13-5.1-.34-9.75-4.03-12.76-2.53-2.06-5.86-3.16-9.11-3.16-1.86,0-3.69,.36-5.33,1.09-9.67,4.34-13.41,13.74-9.53,23.97,1.55,4.08,4.61,7.19,8.87,8.99,3.93,1.67,8.47,2.05,12.44,1.83-13.08,17.34-29.33,37.88-39.59,43.66-16.19,9.12-43.12,13.6-65.72-3.81-22.09-17.01-19.02-46.39-18.99-46.72,1.15-10.86,11.24-25.49,23.99-34.79,12.01-8.76,33.91-10.71,42.35-.5,6.03,7.3,9.76,27.76-2.49,37.98-5.69,4.75-11.59,5.23-15.54,4.79-5.35-.59-10.57-3.28-13.31-6.84-2.73-3.56-3.39-10.07-1.54-15.15,.96-2.63,2.98-5.96,7.18-6.89,5.07-1.12,8.73,.99,10.99,3.13-2.38,1.21-4.02,3.66-4.02,6.51,0,4.05,3.28,7.33,7.33,7.33s7.33-3.28,7.33-7.33c0-2.3-1.08-4.33-2.74-5.67l.75-.39c-2.37-4.56-9.82-12.53-21.07-10.04-5.57,1.23-9.82,5.17-11.97,11.1-2.64,7.26-1.61,16.08,2.51,21.45,3.84,5,10.67,8.6,17.84,9.4,5.23,.58,13.04-.04,20.52-6.29,15.1-12.6,12.01-36.81,3.35-47.29-5.53-6.69-14.14-9.36-23.07-9.35-10.44,0-21.33,3.63-28.3,8.72-8.87,6.47-18.64,17.17-23.58,28.41-4.94-11.25-14.72-21.95-23.58-28.41-6.97-5.08-17.86-8.72-28.3-8.72-8.93,0-17.54,2.66-23.07,9.35-8.67,10.48-11.75,34.69,3.35,47.29,7.48,6.25,15.29,6.86,20.52,6.29,7.17-.79,14-4.4,17.84-9.4,4.12-5.37,5.16-14.19,2.51-21.45-2.16-5.92-6.41-9.86-11.97-11.09-11.24-2.49-18.7,5.47-21.07,10.04l.75,.39c-1.66,1.34-2.75,3.37-2.75,5.68,0,4.05,3.28,7.33,7.33,7.33s7.33-3.28,7.33-7.33c0-2.85-1.64-5.29-4.01-6.5,2.27-2.13,5.92-4.25,10.97-3.13,4.2,.93,6.22,4.26,7.18,6.89,1.85,5.08,1.19,11.59-1.54,15.15-2.74,3.56-7.96,6.25-13.31,6.84-3.95,.44-9.85-.04-15.54-4.79-12.24-10.22-8.52-30.68-2.49-37.98,8.44-10.21,30.35-8.26,42.35,.5,12.75,9.3,22.84,23.93,23.99,34.83,0,.06,.15,1.39,.17,3.58,0,.45,0,.93,0,1.44-.14,9.17-2.53,28.85-19.16,41.66-22.6,17.4-49.53,12.93-65.72,3.81-10.26-5.78-26.51-26.31-39.59-43.66,3.97,.22,8.5-.16,12.44-1.83,4.26-1.8,7.33-4.91,8.87-8.99,3.88-10.23,.13-19.64-9.53-23.97-1.64-.74-3.48-1.1-5.33-1.1-3.25,0-6.58,1.1-9.11,3.16-3.7,3.01-5.17,7.67-4.03,12.76,1.14,5.12,3.83,7.27,5.89,8.17,3.56,1.56,7.31,.44,9.33-.42,1.89-.11,3.39-1.66,3.39-3.58s-1.61-3.6-3.59-3.6c-1.05,0-1.99,.46-2.64,1.17-1.1,.43-2.71,.84-3.84,.34-1.18-.52-1.77-2.21-2.07-3.53-.59-2.68,0-4.76,1.75-6.19,2.01-1.64,5.33-2.15,7.54-1.15,6.49,2.91,8.7,8.59,6.05,15.58-.91,2.41-2.63,4.13-5.26,5.24-5.49,2.32-12.97,1.2-15.6,.27-.45-.61-.92-1.23-1.36-1.82-4.75-6.37-8.84-11.87-11.93-15.67-12.93-15.91-28.67-32.25-52.03-24.78-11.37,3.64-20.17,15.48-20.93,28.16-.67,11.12,4.87,20.21,15.18,24.93,9.08,4.16,18.04,3.08,24.59-2.95,6.27-5.78,8.73-15.12,5.98-22.72-4.45-12.29-15.39-12.66-20.56-11.14l.17,.57c-4.26,.05-7.7,3.51-7.7,7.77s3.49,7.78,7.78,7.78,7.78-3.49,7.78-7.78c0-.64-.1-1.26-.25-1.86,2.41,.76,4.98,2.64,6.53,6.91,1.87,5.16,.12,11.57-4.24,15.59-2.64,2.43-8.39,5.89-17.34,1.8-10.53-4.82-11.62-13.66-11.33-18.5,.59-9.89,7.61-19.46,16.33-22.25,19.38-6.21,32.79,7.79,44.86,22.65,3,3.69,7.06,9.14,11.76,15.45,2.12,2.85,4.36,5.85,6.67,8.92-.55-.02-1.1-.04-1.67-.04-3.44,0-7.14,.5-10.42,1.89-4.26,1.8-7.32,4.91-8.87,8.99-3.88,10.23-.14,19.64,9.53,23.97,4.52,2.03,10.46,1.18,14.44-2.07,3.7-3.01,5.16-7.66,4.03-12.76-1.14-5.12-3.83-7.27-5.89-8.17-3.57-1.56-7.31-.44-9.33,.42-1.89,.11-3.39,1.66-3.39,3.57s1.61,3.6,3.6,3.6c1.05,0,1.98-.46,2.64-1.17,1.1-.43,2.71-.84,3.84-.34,1.18,.52,1.77,2.21,2.07,3.53,.6,2.67,0,4.76-1.75,6.19-2.01,1.64-5.32,2.15-7.54,1.15-6.49-2.91-8.7-8.59-6.05-15.58,.92-2.42,2.63-4.13,5.25-5.24,5.26-2.23,12.37-1.29,15.25-.38,12.55,16.32,26.35,32.84,36.32,38.46,17.95,10.11,47.85,15.05,73.02-4.33,10.02-7.71,15.49-17.44,18.44-26.43,2.96,8.99,8.42,18.72,18.44,26.43,25.17,19.38,55.06,14.44,73.02,4.33,9.97-5.62,23.77-22.14,36.32-38.46,2.89-.91,9.99-1.85,15.25,.38,2.62,1.11,4.34,2.82,5.26,5.24,2.65,6.99,.44,12.67-6.05,15.58-2.21,.99-5.53,.49-7.54-1.15-1.75-1.43-2.34-3.51-1.75-6.19,.29-1.32,.89-3.01,2.07-3.53,1.13-.5,2.74-.09,3.84,.34,.66,.72,1.59,1.17,2.64,1.17,1.99,0,3.6-1.61,3.6-3.6s-1.5-3.47-3.39-3.57c-2.02-.86-5.77-1.98-9.33-.42-2.06,.9-4.76,3.05-5.89,8.17-1.13,5.1,.34,9.75,4.03,12.76,3.98,3.24,9.92,4.1,14.44,2.07,9.67-4.34,13.41-13.74,9.53-23.97-1.55-4.08-4.61-7.19-8.87-8.99-3.28-1.39-6.98-1.89-10.42-1.89-.56,0-1.12,.01-1.67,.04,2.31-3.07,4.55-6.07,6.67-8.92,4.7-6.31,8.76-11.76,11.76-15.45,12.07-14.86,25.49-28.85,44.86-22.65,8.72,2.79,15.74,12.35,16.33,22.25,.29,4.84-.8,13.68-11.33,18.5-8.94,4.09-14.7,.63-17.34-1.8-4.36-4.02-6.11-10.43-4.24-15.59,1.55-4.27,4.12-6.14,6.53-6.91-.15,.6-.25,1.21-.25,1.86,0,4.3,3.49,7.78,7.78,7.78s7.78-3.49,7.78-7.78-3.44-7.73-7.69-7.77l.17-.57c-5.16-1.52-16.11-1.15-20.56,11.14Z"/><path class="cls-1" d="M543.13,1112.96v-.08s-2.78,.02-2.78,.02l-2.77-.02v.08c-20.83,.62-36.65,6.96-47.01,18.9-16.17,18.63-12.98,43.8-12.84,44.87l.39,2.87h2.9c21.94,0,38.55-6.25,49.36-18.56,4.83-5.5,7.96-11.6,9.97-17.5,2.02,5.9,5.14,12,9.97,17.5,10.81,12.32,27.42,18.56,49.36,18.56h2.9l.39-2.87c.14-1.06,3.34-26.24-12.84-44.87-10.37-11.94-26.18-18.28-47-18.9Zm-17.77,43.74c-9.01,10.23-22.88,15.68-41.27,16.22-.28-6.74,.27-23.79,11.49-36.72,8.97-10.33,22.87-15.9,41.35-16.6-.06,1.73-.07,3.96,.08,6.55-.57,8.38-3.01,20.74-11.65,30.55Zm71.25,16.22c-18.39-.54-32.26-5.99-41.27-16.22-8.64-9.81-11.08-22.17-11.65-30.55,.15-2.59,.15-4.82,.08-6.55,18.45,.7,32.34,6.25,41.31,16.55,11.22,12.89,11.79,30.01,11.52,36.76Z"/><path class="cls-1" d="M540.21,1212.08c-4.71-2.26-21.51-11.83-26.65-35.6l-6.48,1.4c6.64,30.75,30.9,40.51,31.92,40.91l1.2,.47,1.2-.47c1.03-.4,25.28-10.16,31.92-40.91l-6.48-1.4c-5.14,23.77-21.95,33.35-26.65,35.6Z"/><rect class="cls-1" x="536.9" y="1158.22" width="6.63" height="45.73"/><path class="cls-1" d="M1014.89,726.17c.95-.21,1.81-.79,2.34-1.7,.99-1.72,.4-3.92-1.32-4.91-1.66-.96-3.75-.43-4.79,1.15-1.76,1.32-4.6,4-5.03,7.87-.25,2.24,.26,5.64,4.13,9.19,3.85,3.53,8.61,4.58,13.07,2.89,4.8-1.82,8.5-6.54,9.01-11.47,1.08-10.54-5.2-18.49-16-20.24-4.31-.7-8.53,.4-12.22,3.19-2.84,2.15-5.13,5.1-6.85,8.07-.28,.49-.55,.98-.8,1.46-1.5-3.53-2.98-6.98-4.39-10.24-3.12-7.23-5.8-13.47-7.5-17.91-6.83-17.89-12.24-36.5,2.82-50.18,6.77-6.15,18.57-7.45,27.43-3.02,4.34,2.17,11.45,7.53,10.36,19.06-.93,9.79-6.81,13.05-10.23,14.12-5.66,1.77-12.09,.07-15.62-4.12-2.93-3.48-3.26-6.64-2.72-9.11,.44,.43,.93,.82,1.48,1.14,3.72,2.15,8.48,.87,10.63-2.85,2.15-3.72,.87-8.48-2.85-10.63-3.7-2.13-8.41-.89-10.58,2.78l-.41-.43c-3.9,3.71-9.05,13.38-.63,23.37,5.2,6.18,14.52,8.72,22.66,6.18,8.5-2.65,13.91-9.88,14.85-19.82,1.07-11.29-4.03-20.63-14-25.61-11.36-5.68-26.02-3.98-34.85,4.04-18.15,16.49-11.87,38.3-4.55,57.45,1.75,4.57,4.46,10.87,7.6,18.17,.29,.67,.6,1.39,.9,2.08-.5,2.74-3.27,9.78-8.03,13.37-2.27,1.72-4.62,2.35-7.17,1.93-7.38-1.2-11.19-5.95-10.47-13.02,.25-2.42,2.34-5.03,4.77-5.95,2.12-.8,4.22-.27,6.24,1.58,1,.92,2.16,2.27,2.02,3.56-.13,1.23-1.29,2.42-2.21,3.16-.95,.21-1.81,.79-2.34,1.7-.99,1.72-.4,3.92,1.31,4.91,1.66,.96,3.76,.43,4.79-1.15,1.76-1.32,4.6-4.01,5.03-7.87,.25-2.24-.26-5.64-4.13-9.19-3.85-3.53-8.61-4.58-13.07-2.89-3.05,1.16-5.67,3.5-7.29,6.31-.93,1.61-1.54,3.37-1.72,5.16-1.08,10.54,5.2,18.49,16,20.24,4.31,.7,8.53-.4,12.22-3.19,3.41-2.58,6.01-6.31,7.8-9.86,8.48,20,18.14,44.34,18.02,56.11-.2,18.58-9.78,44.14-36.15,55.01-25.78,10.63-49.69-6.72-49.95-6.91-8.83-6.42-16.45-22.47-18.14-38.17-1.58-14.78,7.68-34.72,20.75-36.93,9.33-1.57,28.92,5.43,31.65,21.14,1.27,7.3-1.27,12.65-3.63,15.85-3.19,4.34-8.13,7.52-12.58,8.1-4.45,.59-10.42-2.1-13.89-6.24-1.8-2.14-3.67-5.56-2.38-9.66,1.56-4.95,5.22-7.06,8.2-7.95-.14,2.66,1.16,5.31,3.63,6.74,3.51,2.02,7.99,.82,10.02-2.68,2.03-3.51,.82-7.99-2.68-10.02-1.99-1.15-4.29-1.23-6.29-.46l.03-.85c-5.14-.23-15.76,2.24-19.23,13.23-1.72,5.43-.43,11.09,3.62,15.92,4.96,5.92,13.12,9.43,19.84,8.55,6.25-.82,12.79-4.94,17.06-10.75,3.12-4.24,6.48-11.31,4.82-20.91-3.36-19.38-25.87-28.81-39.28-26.54-8.56,1.44-15.17,7.56-19.63,15.3-5.22,9.04-7.52,20.29-6.6,28.87,1.17,10.91,5.55,24.73,12.82,34.63-12.22-1.35-26.37,1.77-36.4,6.21-7.89,3.49-16.48,11.11-21.7,20.15-4.47,7.74-6.46,16.52-3.44,24.66,4.74,12.75,24.17,27.52,42.63,20.75,9.15-3.36,13.59-9.81,15.7-14.63,2.89-6.6,3.19-14.32,.78-20.15-2.59-6.26-9.72-11.56-17.32-12.9-6.21-1.09-11.75,.62-15.6,4.82-7.77,8.49-4.61,18.93-1.84,23.27l.71-.46c.34,2.11,1.55,4.06,3.54,5.21,3.51,2.03,7.99,.82,10.02-2.68,2.02-3.51,.82-7.99-2.68-10.01-2.46-1.42-5.4-1.22-7.64,.22-.71-3.03-.72-7.25,2.78-11.07,2.9-3.17,6.8-3.26,9.56-2.77,5.32,.94,10.63,4.77,12.35,8.91,1.72,4.15,1.43,10.02-.73,14.95-1.6,3.64-4.96,8.51-11.92,11.07-14.97,5.49-30.83-7.97-34.13-16.84-4.62-12.42,8.02-30.41,21.61-36.43,14.43-6.39,32.15-7.81,42.16-3.37,.06,.02,1.28,.57,3.19,1.65,.39,.23,.8,.47,1.24,.72,7.87,4.71,23.73,16.62,26.5,37.42,3.77,28.28-13.57,49.36-29.56,58.82-10.14,5.99-36.04,9.8-57.6,12.45,2.18-3.33,4.11-7.44,4.63-11.68,.57-4.59-.59-8.8-3.35-12.18-6.92-8.47-16.94-9.94-25.53-3.73-1.46,1.06-2.69,2.46-3.61,4.07-1.62,2.82-2.34,6.24-1.82,9.47,.76,4.71,4.06,8.31,9.04,9.87,5,1.57,8.21,.31,10.02-1.02,3.13-2.3,4.04-6.1,4.3-8.29,.85-1.69,.26-3.77-1.4-4.73-1.72-.99-3.92-.4-4.91,1.32-.52,.91-.6,1.95-.3,2.88-.18,1.17-.63,2.77-1.63,3.49-1.04,.76-2.8,.43-4.09,.03-2.62-.82-4.12-2.37-4.49-4.61-.42-2.56,.8-5.69,2.77-7.11,5.77-4.17,11.79-3.24,16.51,2.55,1.63,2,2.26,4.35,1.91,7.17-.73,5.91-5.44,11.84-7.57,13.64-.75,.09-1.52,.18-2.25,.26-7.89,.92-14.7,1.72-19.53,2.5-20.24,3.24-42.27,8.71-47.48,32.67-2.53,11.66,3.32,25.21,13.93,32.2,9.3,6.14,19.93,5.89,29.18-.69,8.14-5.78,11.69-14.08,9.74-22.77-1.87-8.32-8.73-15.12-16.68-16.54-12.87-2.29-18.67,7-19.93,12.23l.58,.14c-2.09,3.71-.81,8.42,2.88,10.55,3.72,2.15,8.48,.87,10.63-2.85,2.15-3.72,.87-8.48-2.85-10.63-.56-.32-1.14-.54-1.73-.71,1.87-1.71,4.78-3,9.25-2.2,5.4,.96,10.08,5.67,11.38,11.46,.79,3.5,.91,10.22-7.11,15.92-9.44,6.71-17.64,3.23-21.69,.56-8.27-5.46-13.04-16.32-11.1-25.27,4.31-19.88,23.14-24.5,42.05-27.53,4.69-.75,11.44-1.54,19.26-2.46,3.53-.41,7.25-.85,11.06-1.32-.3,.46-.59,.94-.87,1.42-1.72,2.98-3.13,6.43-3.57,9.97-.57,4.59,.59,8.8,3.35,12.18,6.92,8.47,16.94,9.94,25.53,3.73,4.02-2.9,6.26-8.47,5.43-13.54-.76-4.71-4.06-8.3-9.04-9.87-5-1.57-8.21-.32-10.02,1.02-3.14,2.31-4.04,6.11-4.3,8.29-.85,1.69-.26,3.76,1.4,4.72,1.72,.99,3.92,.4,4.91-1.32,.53-.91,.6-1.95,.31-2.88,.18-1.17,.63-2.77,1.63-3.49,1.04-.76,2.8-.43,4.09-.03,2.61,.82,4.12,2.37,4.48,4.61,.41,2.56-.8,5.68-2.77,7.11-5.77,4.17-11.79,3.24-16.51-2.55-1.63-2-2.26-4.35-1.91-7.17,.7-5.67,5.07-11.35,7.3-13.4,20.41-2.7,41.61-6.4,51.47-12.22,17.74-10.49,36.96-33.91,32.76-65.4-1.67-12.53-7.36-22.13-13.67-29.19,9.27,1.94,20.42,2.06,32.11-2.75,29.37-12.1,40.04-40.46,40.26-61.07,.12-11.45-7.29-31.66-15.15-50.68,.66-2.95,3.39-9.57,7.96-13.02,2.27-1.72,4.61-2.35,7.16-1.93,7.38,1.2,11.19,5.95,10.47,13.03-.25,2.41-2.35,5.03-4.77,5.95-2.12,.8-4.21,.27-6.23-1.58-1-.92-2.16-2.28-2.02-3.56,.13-1.23,1.29-2.42,2.21-3.15Z"/><path class="cls-1" d="M1003.28,877.53c6.11,1.2,12.96,1.55,20.14,.11,16.07-3.21,29.78-14.47,40.76-33.47l1.45-2.51-2.29-1.77c-.85-.66-21.06-16.01-45.28-11.32-15.52,3.01-28.92,13.53-39.86,31.26l-.08-.03-1.37,2.4-1.4,2.39,.06,.05c-9.88,18.34-12.29,35.21-7.14,50.15,8.05,23.32,31.45,33.14,32.44,33.55l2.68,1.1,1.45-2.51c10.97-19,13.87-36.5,8.61-52.03-2.35-6.94-6.07-12.69-10.17-17.38Zm15.98-42.43c16.77-3.27,31.89,4.79,37.6,8.4-9.66,15.65-21.32,24.94-34.68,27.63-12.81,2.57-24.74-1.49-32.28-5.19-2.16-1.42-4.1-2.54-5.63-3.35,9.83-15.63,21.59-24.88,34.99-27.5Zm-18.66,105.85c-5.97-3.12-20.47-12.13-26.06-28.31-4.46-12.93-2.33-27.76,6.3-44.11,1.46,.92,3.39,2.04,5.71,3.2,6.98,4.68,16.46,12.98,20.63,25.36,4.36,12.92,2.14,27.66-6.59,43.85Z"/><path class="cls-1" d="M1049.51,866.14l-4.45,4.91c18.02,16.34,17.9,35.68,17.5,40.88-4.31,2.95-21,12.71-44.15,5.28l-2.03,6.31c29.95,9.62,50.53-6.5,51.39-7.19l1.01-.81,.2-1.27c.17-1.09,3.84-26.97-19.47-48.1Z"/><rect class="cls-1" x="1032.4" y="873.56" width="6.63" height="45.73" transform="translate(-258.48 1345.15) rotate(-60)"/><path class="cls-1" d="M1034.82,564.56c-.94-9.94-6.35-17.16-14.85-19.82-8.14-2.54-17.46,0-22.66,6.18-8.41,10-3.27,19.66,.63,23.37l.41-.43c2.17,3.66,6.88,4.91,10.58,2.78,3.72-2.15,5-6.91,2.85-10.63-2.15-3.72-6.91-5-10.63-2.85-.56,.32-1.04,.72-1.48,1.14-.54-2.47-.21-5.64,2.72-9.11,3.53-4.2,9.95-5.89,15.62-4.12,3.42,1.07,9.3,4.32,10.23,14.12,1.09,11.53-6.02,16.89-10.36,19.06-8.86,4.43-20.65,3.14-27.43-3.02-15.06-13.68-9.65-32.29-2.82-50.18,1.7-4.44,4.39-10.68,7.5-17.91,1.4-3.26,2.89-6.7,4.39-10.24,.25,.49,.52,.97,.8,1.46,1.72,2.98,4.01,5.93,6.85,8.07,3.69,2.79,7.92,3.89,12.22,3.19,10.8-1.76,17.08-9.7,16-20.24-.5-4.93-4.21-9.65-9.01-11.47-4.46-1.69-9.22-.64-13.07,2.89-3.86,3.54-4.38,6.96-4.13,9.19,.43,3.87,3.27,6.56,5.03,7.87,1.04,1.58,3.13,2.1,4.79,1.15,1.72-.99,2.31-3.19,1.32-4.91-.52-.91-1.39-1.49-2.34-1.7-.92-.74-2.08-1.93-2.21-3.15-.14-1.28,1.03-2.64,2.02-3.56,2.02-1.85,4.12-2.38,6.23-1.58,2.43,.92,4.52,3.54,4.77,5.95,.73,7.08-3.09,11.83-10.47,13.03-2.55,.41-4.89-.22-7.16-1.93-4.56-3.45-7.3-10.07-7.96-13.02,7.86-19.02,15.27-39.24,15.15-50.68-.22-20.61-10.89-48.96-40.26-61.07-11.69-4.82-22.85-4.69-32.11-2.76,6.31-7.06,12-16.65,13.67-29.19,4.2-31.49-15.02-54.91-32.76-65.4-9.85-5.83-31.06-9.52-51.47-12.22-2.23-2.05-6.6-7.73-7.3-13.4-.35-2.83,.27-5.17,1.91-7.17,4.73-5.79,10.75-6.72,16.51-2.55,1.97,1.42,3.18,4.55,2.77,7.11-.36,2.24-1.87,3.79-4.49,4.61-1.29,.41-3.05,.73-4.09-.03-1-.73-1.45-2.33-1.63-3.5,.29-.93,.22-1.97-.31-2.87-.99-1.72-3.19-2.31-4.91-1.32-1.66,.96-2.25,3.03-1.4,4.72,.26,2.18,1.17,5.98,4.3,8.29,1.81,1.33,5.02,2.59,10.03,1.02,4.98-1.57,8.27-5.17,9.04-9.87,.82-5.07-1.41-10.64-5.43-13.54-8.59-6.21-18.61-4.74-25.53,3.73-2.76,3.38-3.92,7.59-3.35,12.18,.44,3.53,1.85,6.99,3.57,9.96,.28,.49,.57,.96,.87,1.42-3.81-.47-7.53-.9-11.06-1.32-7.82-.92-14.57-1.71-19.26-2.46-18.91-3.03-37.73-7.65-42.05-27.53-1.94-8.94,2.83-19.81,11.1-25.26,4.05-2.67,12.25-6.15,21.69,.56,8.02,5.7,7.9,12.42,7.11,15.92-1.3,5.79-5.98,10.5-11.38,11.46-4.48,.8-7.38-.5-9.25-2.2,.59-.17,1.17-.39,1.73-.71,3.72-2.15,5-6.91,2.85-10.63-2.15-3.72-6.91-5-10.63-2.85-3.7,2.13-4.97,6.84-2.89,10.55l-.58,.14c1.26,5.23,7.06,14.52,19.93,12.23,7.96-1.42,14.81-8.22,16.68-16.54,1.95-8.69-1.6-16.99-9.74-22.77-9.25-6.57-19.88-6.82-29.18-.69-10.6,7-16.46,20.54-13.93,32.2,5.2,23.96,27.23,29.42,47.48,32.66,4.83,.77,11.65,1.57,19.54,2.5,.73,.09,1.5,.18,2.25,.26,2.12,1.8,6.84,7.73,7.57,13.64,.35,2.83-.27,5.17-1.91,7.17-4.73,5.79-10.75,6.72-16.51,2.55-1.97-1.42-3.18-4.54-2.77-7.11,.36-2.24,1.87-3.79,4.49-4.61,1.29-.41,3.05-.73,4.09,.03,1,.73,1.45,2.33,1.63,3.49-.29,.93-.22,1.97,.31,2.88,.99,1.72,3.19,2.31,4.91,1.32,1.66-.96,2.25-3.04,1.4-4.73-.27-2.18-1.17-5.98-4.3-8.29-1.81-1.33-5.02-2.59-10.02-1.02-4.98,1.57-8.28,5.17-9.04,9.87-.52,3.23,.19,6.65,1.82,9.47,.93,1.61,2.15,3.02,3.61,4.07,8.59,6.21,18.61,4.74,25.53-3.73,2.76-3.38,3.92-7.59,3.35-12.18-.53-4.24-2.46-8.36-4.63-11.68,21.56,2.65,47.47,6.46,57.6,12.45,15.99,9.46,33.33,30.54,29.56,58.82-3.69,27.64-30.66,39.67-30.96,39.8-9.98,4.43-27.69,3.01-42.13-3.38-13.59-6.02-26.23-24.01-21.61-36.43,3.3-8.87,19.17-22.33,34.13-16.84,6.96,2.55,10.32,7.43,11.91,11.07,2.16,4.93,2.45,10.8,.73,14.95-1.72,4.14-7.02,7.97-12.35,8.91-2.76,.49-6.65,.4-9.56-2.77-3.51-3.83-3.5-8.05-2.79-11.08,2.24,1.45,5.18,1.66,7.65,.23,3.51-2.02,4.71-6.51,2.68-10.02-2.02-3.51-6.51-4.71-10.01-2.68-1.99,1.15-3.21,3.1-3.54,5.21l-.72-.45c-2.77,4.33-5.94,14.77,1.84,23.27,3.85,4.2,9.39,5.92,15.6,4.82,7.61-1.34,14.73-6.65,17.32-12.9,2.41-5.83,2.11-13.55-.78-20.15-2.11-4.82-6.55-11.27-15.7-14.63-18.46-6.78-37.88,8-42.63,20.75-3.03,8.14-1.03,16.92,3.44,24.65,5.22,9.04,13.81,16.66,21.7,20.15,10.03,4.45,24.19,7.56,36.4,6.22-7.27,9.91-11.65,23.72-12.82,34.63-.92,8.58,1.38,19.82,6.6,28.87,4.47,7.74,11.07,13.86,19.64,15.3,13.41,2.26,35.92-7.17,39.28-26.54,1.67-9.6-1.7-16.68-4.82-20.91-4.27-5.81-10.81-9.93-17.06-10.75-6.71-.88-14.87,2.63-19.84,8.55-4.05,4.83-5.34,10.48-3.62,15.92,3.47,10.98,14.09,13.46,19.23,13.23l-.04-.85c1.99,.77,4.29,.69,6.29-.46,3.51-2.03,4.71-6.51,2.68-10.02-2.02-3.51-6.51-4.71-10.02-2.68-2.46,1.42-3.76,4.06-3.63,6.72-2.98-.9-6.64-3-8.2-7.94-1.29-4.1,.58-7.52,2.38-9.66,3.48-4.14,9.45-6.82,13.89-6.24,4.45,.59,9.39,3.77,12.58,8.1,2.35,3.2,4.89,8.55,3.63,15.85-2.73,15.71-22.31,22.72-31.65,21.14-13.06-2.21-22.33-22.15-20.75-36.93,1.68-15.7,9.31-31.75,18.16-38.19,.05-.04,1.13-.82,3.02-1.94,.39-.22,.81-.46,1.24-.71,8.01-4.46,26.25-12.24,45.66-4.24,26.37,10.87,35.96,36.43,36.15,55.01,.12,11.77-9.53,36.11-18.02,56.11-1.79-3.55-4.39-7.28-7.8-9.85-3.69-2.79-7.92-3.89-12.23-3.19-10.8,1.76-17.08,9.7-15.99,20.24,.18,1.79,.79,3.56,1.72,5.17,1.63,2.81,4.24,5.15,7.29,6.31,4.46,1.69,9.22,.64,13.07-2.89,3.86-3.54,4.38-6.95,4.13-9.19-.43-3.86-3.27-6.55-5.03-7.87-1.04-1.58-3.13-2.11-4.8-1.15-1.72,.99-2.31,3.19-1.32,4.91,.53,.91,1.39,1.49,2.34,1.7,.92,.74,2.08,1.93,2.21,3.16,.13,1.28-1.03,2.64-2.02,3.56-2.02,1.85-4.12,2.38-6.24,1.58-2.43-.92-4.52-3.54-4.77-5.95-.72-7.08,3.09-11.82,10.47-13.03,2.55-.41,4.89,.22,7.17,1.94,4.75,3.59,7.53,10.63,8.03,13.37-.3,.7-.61,1.41-.9,2.08-3.14,7.3-5.86,13.6-7.6,18.17-7.31,19.15-13.6,40.96,4.55,57.45,8.83,8.03,23.49,9.73,34.85,4.04,9.96-4.98,15.06-14.32,13.99-25.61Z"/><path class="cls-1" d="M976.51,356.51l-.07,.05,1.4,2.39,1.37,2.4,.08-.03c10.95,17.73,24.34,28.25,39.86,31.26,24.22,4.69,44.43-10.66,45.27-11.32l2.29-1.77-1.45-2.51c-10.97-19-24.68-30.26-40.76-33.47-7.18-1.43-14.03-1.09-20.14,.11,4.1-4.69,7.82-10.45,10.17-17.39,5.26-15.52,2.37-33.03-8.6-52.03l-1.45-2.51-2.68,1.1c-.99,.41-24.39,10.23-32.44,33.55-5.16,14.95-2.74,31.81,7.14,50.15Zm46.76-6.48c13.36,2.68,25.02,11.98,34.68,27.63-5.69,3.61-20.74,11.66-37.55,8.41-13.42-2.6-25.2-11.86-35.05-27.51,1.53-.81,3.47-1.92,5.63-3.34,7.54-3.7,19.47-7.76,32.28-5.19Zm-47.66-41.45c5.55-16.16,20.09-25.22,26.08-28.36,8.73,16.19,10.94,30.94,6.59,43.85-4.18,12.38-13.66,20.68-20.63,25.36-2.32,1.16-4.25,2.28-5.71,3.2-8.62-16.33-10.75-31.14-6.32-44.05Z"/><path class="cls-1" d="M1063.8,309.48c.4,5.21,.51,24.55-17.5,40.88l4.45,4.91c23.31-21.13,19.63-47.01,19.47-48.1l-.2-1.27-1.01-.81c-.86-.69-21.44-16.81-51.39-7.19l2.03,6.31c23.16-7.44,39.85,2.33,44.15,5.28Z"/><rect class="cls-1" x="1014.1" y="321.66" width="45.72" height="6.63" transform="translate(-23.56 562.03) rotate(-30)"/><path class="cls-1" d="M248.98,327.38c54.32-56.28,123.04-95.47,198.73-113.34,2.58-.61,5.16-1.19,7.76-1.75l-1.43-6.64c-2.64,.57-5.27,1.16-7.89,1.78-76.95,18.17-146.82,58.02-202.06,115.24l4.89,4.72Z"/><path class="cls-1" d="M144.78,493.39c-11,37.59-16.57,76.7-16.57,116.24s5.58,78.71,16.6,116.33l6.52-1.91c-10.83-36.99-16.32-75.49-16.32-114.41s5.48-77.36,16.3-114.33l-6.52-1.91Z"/><path class="cls-1" d="M443.32,1004.15c-77.46-19.2-147.1-60.62-201.39-119.77l-5.01,4.59c55.19,60.14,126,102.24,204.76,121.77l1.64-6.6Z"/><path class="cls-1" d="M833.93,891.87c-54.76,56.73-124.07,96.07-200.44,113.74l1.53,6.62c77.65-17.98,148.12-57.97,203.79-115.65l-4.89-4.72Z"/><path class="cls-1" d="M936.11,732.51c12.33-39.63,18.58-80.98,18.58-122.88s-5.71-79.6-16.98-117.62l-6.52,1.93c11.08,37.39,16.7,76.31,16.7,115.69s-6.15,81.89-18.27,120.87l6.49,2.02Z"/><path class="cls-1" d="M642.45,208.82l-1.66,6.59c75.96,19.08,144.5,59.65,198.19,117.32l4.97-4.63c-54.59-58.63-124.27-99.87-201.51-119.27Z"/><path class="cls-1" d="M470.01,79.71l-.9-6.73c-141.42,18.88-267.73,91.67-355.66,204.97l5.37,4.17c86.83-111.88,211.55-183.76,351.19-202.4Z"/><path class="cls-1" d="M45.82,810.52c-25.89-63.82-39.02-131.41-39.02-200.9s13.13-137.06,39.02-200.88l-6.3-2.55C13.29,470.82,0,539.27,0,609.63s13.3,138.81,39.52,203.45l6.3-2.55Z"/><path class="cls-1" d="M118.68,936.97l-5.37,4.16c87.41,112.73,212.97,185.48,353.54,204.85l.93-6.73c-138.8-19.13-262.78-90.97-349.1-202.28Z"/><path class="cls-1" d="M610.07,1139.92l.86,6.74c142.68-18.28,270.05-91.27,358.65-205.53l-5.37-4.16c-87.49,112.83-213.26,184.9-354.15,202.95Z"/><path class="cls-1" d="M1082.9,609.63c0-71.42-13.69-140.83-40.69-206.29l-6.28,2.59c26.66,64.64,40.17,133.18,40.17,203.71s-14.63,144.65-43.49,211.55l6.24,2.69c29.22-67.76,44.04-139.84,44.04-214.25Z"/><path class="cls-1" d="M969.56,289.31l5.44-4.07c-87.43-116.67-220.1-194.16-363.97-212.62l-.87,6.74c142.06,18.22,273.06,94.75,359.4,209.96Z"/><path class="cls-1" d="M541.45,229.88c-209.4,0-379.75,170.35-379.75,379.75s170.35,379.75,379.75,379.75,379.75-170.35,379.75-379.75-170.35-379.75-379.75-379.75Zm0,739.12c-198.16,0-359.37-161.21-359.37-359.37S343.29,250.26,541.45,250.26s359.37,161.21,359.37,359.37-161.21,359.37-359.37,359.37Z"/></g><g><path class="cls-1" d="M350.47,524.32v3.56c0,8.49-2.63,19.19-7.89,32.08-5.27,12.91-11.8,26.48-19.61,40.74,5.77-5.09,14.26-12.64,25.46-22.66,11.2-10.01,23.34-19.94,36.41-29.79,13.07-9.84,25.8-18.5,38.2-25.97,12.39-7.47,22.32-11.2,29.79-11.2,5.77,0,9.76,1.45,11.97,4.33,2.2,2.89,3.31,6.71,3.31,11.46,0,7.13-1.87,15.53-5.6,25.21-3.74,9.68-7.98,19.19-12.73,28.52-4.76,9.34-9.25,17.66-13.5,24.96-4.25,7.3-7.05,11.97-8.4,14-.34,1.02-2.72,5.01-7.13,11.97-4.42,6.96-9,14.86-13.75,23.68-4.76,8.83-9.17,17.57-13.24,26.23-4.07,8.66-6.11,15.37-6.11,20.12,0,3.4,1.53,5.09,4.58,5.09,3.39,0,7.64-1.19,12.73-3.56,5.09-2.37,10.26-5.09,15.53-8.15,5.26-3.06,10.19-6.28,14.77-9.68,4.58-3.39,8.06-6.11,10.44-8.15,13.92-11.88,27.33-24.53,40.23-37.94,12.9-13.41,25.29-27.07,37.18-41h5.6c-6.11,7.13-14.86,17.06-26.23,29.8-11.38,12.73-23.68,25.21-36.92,37.43-13.24,12.22-26.57,22.84-39.98,31.83-13.42,9-25.21,13.5-35.4,13.5-7.47,0-13.93-1.61-19.35-4.84-5.43-3.22-8.15-9.59-8.15-19.1,0-6.79,1.44-14.34,4.33-22.66,2.88-8.31,6.28-16.46,10.19-24.44,3.9-7.97,7.81-15.28,11.71-21.9,3.9-6.62,7.04-11.79,9.42-15.53,.68-1.02,3.82-5.43,9.42-13.24,5.6-7.8,11.71-16.63,18.33-26.48,6.62-9.84,12.56-19.18,17.82-28.01,5.26-8.83,7.89-14.77,7.89-17.83-7.82,0-18.33,4.08-31.58,12.22-13.24,8.15-26.82,17.66-40.74,28.52-13.93,10.87-26.91,21.73-38.96,32.59-12.06,10.87-20.63,19.02-25.72,24.45l-2.04,3.56c-6.45,11.2-13.07,22.07-19.86,32.59-6.8,10.53-13.16,20.04-19.1,28.52-5.94,8.49-11.04,15.62-15.28,21.39-4.25,5.78-7.05,9.5-8.4,11.2h-43.8c1.36-2.04,5.69-7.47,12.99-16.3,7.31-8.83,15.88-19.61,25.72-32.34,9.84-12.73,20.28-26.48,31.32-41.25,11.03-14.77,21.3-28.85,30.81-42.27,9.5-13.41,17.32-25.54,23.43-36.41,6.11-10.86,9.17-18.5,9.17-22.92,0-2.71-1.19-4.41-3.57-5.09-5.43,0-11.8,3.31-19.1,9.93-7.3,6.62-14.69,14.51-22.15,23.68-7.47,9.17-14.69,18.42-21.64,27.76-6.96,9.34-12.82,16.89-17.57,22.66h-5.6c5.43-6.44,11.79-14.68,19.1-24.7,7.3-10.01,14.85-19.69,22.66-29.03,7.81-9.33,15.61-17.39,23.43-24.19,7.81-6.79,14.94-10.19,21.39-10.19,3.39,0,6.37,1.02,8.91,3.06,2.55,2.04,4.15,5.44,4.84,10.19Z"/><path class="cls-1" d="M870.95,598.17h5.6c-5.09,7.82-11.97,16.47-20.63,25.97-8.66,9.51-17.82,18.33-27.5,26.48-9.68,8.15-19.53,15.02-29.54,20.63-10.02,5.6-18.93,8.41-26.74,8.41-6.11,0-11.55-1.95-16.3-5.86-4.76-3.9-8.32-10.44-10.7-19.61-6.45,7.13-14,14.1-22.66,20.88-8.66,6.79-17.49,12.82-26.48,18.08-9,5.27-17.91,9.51-26.74,12.73-8.83,3.23-16.81,4.84-23.94,4.84-5.44,0-10.27-1.61-14.52-4.84-4.25-3.22-6.37-8.74-6.37-16.55,0-6.11,1.35-13.24,4.07-21.39,2.71-8.15,6.28-16.97,10.7-26.48-7.13,8.15-14.69,16.13-22.66,23.94-7.98,7.82-16.22,14.86-24.7,21.14-8.49,6.29-16.81,11.55-24.96,15.79-8.15,4.25-15.79,6.88-22.92,7.89-6.11,0-11.97-1.27-17.57-3.82-5.6-2.55-8.4-8.23-8.4-17.06,0-7.81,2.38-17.32,7.13-28.52,4.75-11.2,10.7-22.92,17.83-35.14,7.13-12.22,14.77-24.45,22.92-36.67,8.15-12.22,15.79-23.5,22.92-33.87,7.13-10.35,13.07-19.18,17.82-26.48,4.75-7.3,7.13-11.97,7.13-14.01-5.43-.33-12.4,3.14-20.88,10.44-8.49,7.3-16.98,15.79-25.46,25.46-8.49,9.68-16.38,19.19-23.68,28.52-7.3,9.34-12.48,16.04-15.53,20.11h-5.6c4.41-5.09,10.44-12.64,18.08-22.66,7.64-10.01,15.87-19.94,24.7-29.79,8.82-9.84,17.65-18.5,26.48-25.97,8.83-7.47,16.63-11.2,23.43-11.2,4.07,0,7.72,1.27,10.95,3.82,3.22,2.55,4.84,6.71,4.84,12.48,0,7.13-2.29,15.96-6.88,26.48-4.58,10.53-10.19,21.73-16.81,33.61-6.62,11.89-13.93,23.94-21.9,36.16-7.98,12.22-15.28,23.68-21.9,34.38-6.62,10.7-12.22,20.12-16.81,28.27-4.58,8.15-6.88,14.09-6.88,17.83,0,2.38,1.35,3.56,4.07,3.56,7.47,0,16.12-2.97,25.97-8.91,9.84-5.94,19.69-13.24,29.54-21.9,9.84-8.66,19.27-17.9,28.27-27.76,8.99-9.84,16.21-18.67,21.64-26.48,6.44-12.22,13.5-24.36,21.14-36.41,7.64-12.05,15.02-23.25,22.15-33.61,7.13-10.35,13.32-19.35,18.59-26.99,5.26-7.64,8.91-12.81,10.95-15.53l42.27-.51c-1.36,3.05-5.43,9.17-12.22,18.33-6.8,9.17-14.69,20.04-23.68,32.59-9,12.57-18.59,25.97-28.77,40.23-10.19,14.26-19.61,28.01-28.27,41.25-8.66,13.24-15.79,25.21-21.39,35.91-5.6,10.69-8.4,18.76-8.4,24.19,0,4.08,2.04,6.11,6.11,6.11,7.46,0,15.61-1.86,24.45-5.6,8.82-3.73,17.57-8.4,26.23-14,8.66-5.6,16.97-11.79,24.95-18.59,7.97-6.79,14.85-13.41,20.63-19.86-.34-1.7-.51-4.24-.51-7.64,0-6.79,.93-14.17,2.8-22.15,1.86-7.98,4.15-15.87,6.88-23.68,2.71-7.81,5.68-15.28,8.91-22.41,3.22-7.13,6.53-13.41,9.93-18.84,1.7-3.06,4.24-7.13,7.64-12.22,3.39-5.09,7.21-10.19,11.46-15.28,4.24-5.09,8.82-9.5,13.75-13.24,4.92-3.73,9.93-5.6,15.02-5.6,3.73,0,6.79,1.27,9.17,3.82,2.37,2.55,3.56,6.2,3.56,10.95,0,7.47-3.23,17.06-9.68,28.77-6.45,11.72-14.18,23.77-23.17,36.16-9,12.4-18.26,24.28-27.76,35.65-9.51,11.38-17.32,20.46-23.43,27.25,1.7,9.17,4.66,15.62,8.91,19.35,4.24,3.74,9.25,5.6,15.02,5.6,6.45,0,13.83-2.2,22.15-6.62,8.32-4.41,16.72-10.01,25.21-16.81,8.48-6.79,16.72-14.17,24.7-22.15,7.97-7.97,14.68-15.7,20.12-23.17l6.11-8.15Zm-94.73-41.76c-3.06,5.44-6.29,11.63-9.68,18.59-3.4,6.96-6.45,14.18-9.17,21.64-2.72,7.47-4.93,15.02-6.62,22.66-1.7,7.64-2.55,14.86-2.55,21.64v3.56c3.73-3.06,8.32-8.23,13.75-15.53,5.43-7.3,11.2-15.53,17.32-24.7,6.11-9.17,11.97-18.67,17.57-28.52,5.6-9.84,10.26-18.85,14-26.99,3.73-8.15,6.19-14.85,7.38-20.11,1.19-5.26,.25-7.89-2.8-7.89-4.42,0-8.66,1.36-12.73,4.07-4.07,2.72-7.82,5.94-11.2,9.68-3.4,3.74-6.45,7.64-9.17,11.71-2.72,4.08-4.76,7.47-6.11,10.19Z"/></g></g></g></svg>